<?xml version="1.0" encoding="UTF-8"?>
<svg version="1.1" xmlns="http://www.w3.org/2000/svg" width="500" height="500">
<path d="M0 0 C18.69068473 14.75715686 30.07991409 36.13280592 33.13525391 59.65332031 C34.94208216 75.92353142 31.15343888 89.68226864 26 105 C26.73347656 104.66742188 27.46695312 104.33484375 28.22265625 103.9921875 C30.99975759 103.0000866 32.54877678 102.80574717 35.4375 103.125 C36.51837891 103.22167969 36.51837891 103.22167969 37.62109375 103.3203125 C44.32810794 105.23660227 47.52654062 109.62421085 50.875 115.3125 C51.51671143 116.37754761 51.51671143 116.37754761 52.17138672 117.46411133 C53.46565108 119.63269 54.73558559 121.81390991 56 124 C56.36416016 124.61842773 56.72832031 125.23685547 57.10351562 125.87402344 C69.79823729 147.59371201 77.54745145 172.99674535 80 198 C80.16435547 199.53333984 80.16435547 199.53333984 80.33203125 201.09765625 C84.7249975 248.36597313 71.52763909 296.85248867 42.265625 334.37597656 C41.14072998 335.81941824 40.03750105 337.2796861 38.9375 338.7421875 C8.90008093 377.34496435 -37.15829772 402.69231988 -85.47485352 409.2746582 C-135.92123744 414.84412039 -187.29107422 402.73187911 -227.49682617 371.06494141 C-230.7239531 368.44312201 -233.87477692 365.74206044 -237 363 C-237.59280762 362.48550293 -238.18561523 361.97100586 -238.79638672 361.44091797 C-246.33570878 354.85837327 -252.89121268 347.95893976 -259 340 C-259.82242188 338.97003906 -260.64484375 337.94007813 -261.4921875 336.87890625 C-271.08782024 324.8017388 -278.30445089 311.84192074 -285 298 C-285.78637779 295.84413276 -285.78637779 295.84413276 -287.7590332 295.39331055 C-288.51531006 295.22613525 -289.27158691 295.05895996 -290.05078125 294.88671875 C-290.88883301 294.69368164 -291.72688477 294.50064453 -292.59033203 294.30175781 C-293.93780518 293.9977002 -293.93780518 293.9977002 -295.3125 293.6875 C-309.14585886 290.35575203 -321.06361118 286.69215503 -329.73046875 274.58203125 C-333.15206599 268.55350278 -334.29081687 262.83758793 -333 256 C-328.68546968 243.49435009 -319.48009899 233.42447511 -308 227 C-306.01628558 226.28633233 -304.01871139 225.60765842 -302 225 C-302.06960938 223.30423828 -302.06960938 223.30423828 -302.140625 221.57421875 C-303.48731391 172.89295672 -284.2710724 124.3456449 -250.91015625 89.0390625 C-249.94092818 88.02525324 -248.97085231 87.01225394 -248 86 C-247.23598877 85.1951416 -247.23598877 85.1951416 -246.45654297 84.37402344 C-225.34038582 62.22384443 -190.06282564 35.61284387 -158.1875 34.4375 C-154.45939665 34.71934974 -151.86875985 35.47896862 -149 38 C-146.33040943 41.52767325 -145.26465449 44.58909178 -145 49 C-145.987758 54.63022059 -147.6136215 57.38109768 -152 61 C-155.34866257 62.54459833 -158.8102693 63.66778112 -162.3125 64.8125 C-182.43777205 71.78313537 -200.97603542 81.8486585 -217 96 C-217.97453125 96.84175781 -218.9490625 97.68351562 -219.953125 98.55078125 C-250.66798926 125.50897374 -269.91665554 165.31838691 -273 206 C-273.86917775 226.62926839 -272.56895144 247.29314568 -266 267 C-222.91297233 268.03079014 -180.88712072 259.23852961 -141 243 C-144.96630675 238.79401389 -149.27818882 235.40904105 -153.9375 232 C-168.82672308 221.04509077 -168.82672308 221.04509077 -170 216 C-170.44515995 212.02593574 -170.4118814 208.95383062 -168.8125 205.25 C-165.63978436 201.31145645 -163.23630924 199.3562247 -158.3125 197.9375 C-149.48101588 197.29250397 -142.39086915 204.07648718 -136.1015625 209.41796875 C-132.59228882 212.38143202 -128.93031301 215.12878779 -125.25 217.875 C-124.57799561 218.37854004 -123.90599121 218.88208008 -123.21362305 219.40087891 C-119.75152318 221.98500243 -116.26737854 224.53223059 -112.74609375 227.03515625 C-112.06450195 227.52322754 -111.38291016 228.01129883 -110.68066406 228.51416016 C-109.38770615 229.43747528 -108.08915467 230.35302612 -106.78417969 231.25927734 C-102.60507054 234.24912485 -99.58000461 236.70942109 -98.65991211 241.92944336 C-98.2112821 248.75605876 -100.79288538 253.99002607 -103.75 260 C-104.23936035 261.02512695 -104.7287207 262.05025391 -105.23291016 263.10644531 C-106.27316072 265.28190433 -107.32037887 267.45404335 -108.37402344 269.62304688 C-110.02910468 273.06044684 -111.63280133 276.51816219 -113.2265625 279.984375 C-114.2753357 282.23991173 -115.32479535 284.49512942 -116.375 286.75 C-117.10541504 288.34714844 -117.10541504 288.34714844 -117.85058594 289.9765625 C-120.66916169 295.93484207 -122.92674464 299.96337232 -129 303 C-133.89355743 303.5368831 -137.89355898 303.48281063 -142.4375 301.5 C-145.74199298 298.27610441 -147.32491881 295.58427226 -148 291 C-147.61264411 285.02365204 -145.76925618 280.27841648 -143 275 C-143.7213916 275.235979 -144.4427832 275.47195801 -145.18603516 275.71508789 C-180.17238342 287.07532859 -215.23070899 294.53333908 -252 297 C-252 301.20146285 -249.79442646 303.71242193 -247.5 307.0625 C-247.04222168 307.73716309 -246.58444336 308.41182617 -246.11279297 309.10693359 C-236.30321118 323.41983436 -224.90336454 336.54902288 -211 347 C-210.21568604 347.59675537 -210.21568604 347.59675537 -209.41552734 348.20556641 C-191.36171337 361.8671918 -171.94076478 370.98702459 -150.0625 376.875 C-149.00131958 377.16165527 -149.00131958 377.16165527 -147.91870117 377.45410156 C-135.8409086 380.5001543 -123.73337002 381.38192871 -111.3125 381.3125 C-110.61345551 381.31034485 -109.91441101 381.3081897 -109.19418335 381.30596924 C-97.90700294 381.25034598 -87.00723582 380.6414518 -76 378 C-74.74751465 377.70198486 -74.74751465 377.70198486 -73.46972656 377.39794922 C-38.29062339 368.74256722 -4.95714033 349.21048651 17 320 C17.59675537 319.21568604 17.59675537 319.21568604 18.20556641 318.41552734 C44.72284928 283.37298458 56.21120815 240.60308836 50.75 196.953125 C47.0509757 170.87292556 37.40095123 145.76079275 22.1796875 124.2265625 C20.8022977 121.62685327 20.76424547 119.90080575 21 117 C20.34 117 19.68 117 19 117 C18.76667969 117.79664063 18.53335937 118.59328125 18.29296875 119.4140625 C12.04526937 136.74151879 0.93827197 152.63206572 -9 168 C-9.46792969 168.72413086 -9.93585938 169.44826172 -10.41796875 170.19433594 C-13.21836181 174.5047871 -16.08615219 178.76553315 -19 183 C-19.51353027 183.74636719 -20.02706055 184.49273437 -20.55615234 185.26171875 C-27.10039444 194.74314037 -33.76339379 204.13707455 -40.5625 213.4375 C-41.13387695 214.22415039 -41.70525391 215.01080078 -42.29394531 215.82128906 C-48.7046284 224.52720189 -48.7046284 224.52720189 -52 227 C-56.25833259 227.15123934 -58.21976385 226.6769513 -61.44921875 223.875 C-62.55716797 222.451875 -62.55716797 222.451875 -63.6875 221 C-64.10483398 220.47019531 -64.52216797 219.94039062 -64.95214844 219.39453125 C-70.00154177 212.89022798 -74.68975527 206.10845784 -79.37304688 199.33886719 C-81.05148827 196.92598174 -82.7496809 194.52810234 -84.453125 192.1328125 C-97.15695542 174.23227975 -108.5911454 155.70350985 -119.484375 136.64990234 C-120.39593084 135.05614797 -121.31136735 133.46459103 -122.234375 131.87744141 C-136.83816982 106.71102868 -148.19594421 77.51956864 -140.9765625 48.3046875 C-133.23420977 22.10456586 -117.4904147 3.40049096 -93.84765625 -9.75390625 C-63.67829692 -24.93369739 -26.57275986 -20.17360545 0 0 Z M-99 29 C-99.55300781 29.51820312 -100.10601562 30.03640625 -100.67578125 30.5703125 C-110.28272607 40.46209935 -114.9066889 54.77176424 -115.375 68.1875 C-114.63874775 107.24761949 -80.99851085 147.49328455 -59.76489258 178.42236328 C-58.49762701 180.27321262 -57.24426132 182.13360802 -56 184 C-52.23733019 182.74577673 -51.70195927 181.46121371 -49.55859375 178.1796875 C-48.89778809 177.17744141 -48.23698242 176.17519531 -47.55615234 175.14257812 C-46.50741943 173.52512695 -46.50741943 173.52512695 -45.4375 171.875 C-43.98066667 169.65351603 -42.52363608 167.4321614 -41.06640625 165.2109375 C-40.36273926 164.13295898 -39.65907227 163.05498047 -38.93408203 161.94433594 C-37.38348072 159.58378913 -35.81502243 157.24104222 -34.21484375 154.9140625 C-3.09458487 110.55037413 -3.09458487 110.55037413 5 59 C1.20155393 42.02447039 -7.82329743 27.90635278 -22.5 18.5 C-48.51972416 3.58285183 -77.80451092 7.91705334 -99 29 Z M-300 256 C-301.38232443 257.62626404 -302.71937515 259.2925002 -304 261 C-302.24755753 262.6483633 -302.24755753 262.6483633 -300 264 C-297.79199472 263.78282648 -297.79199472 263.78282648 -296 263 C-296.66 260.69 -297.32 258.38 -298 256 C-298.66 256 -299.32 256 -300 256 Z " fill="#84B418" transform="translate(358,57)"/>
<path d="M0 0 C3.25043694 2.85644459 4.70315058 5.5409559 5.875 9.6875 C6.17533034 14.69300574 5.23022719 18.32288422 2.12109375 22.2890625 C-1.99724947 25.68682715 -6.2220694 26.98159966 -11.25 28.625 C-31.37527205 35.59563537 -49.91353542 45.6611585 -65.9375 59.8125 C-66.91203125 60.65425781 -67.8865625 61.49601562 -68.890625 62.36328125 C-99.60548926 89.32147374 -118.85415554 129.13088691 -121.9375 169.8125 C-122.80667775 190.44176839 -121.50645144 211.10564568 -114.9375 230.8125 C-71.85047233 231.84329014 -29.82462072 223.05102961 10.0625 206.8125 C6.09619325 202.60651389 1.78431118 199.22154105 -2.875 195.8125 C-17.76422308 184.85759077 -17.76422308 184.85759077 -18.9375 179.8125 C-19.38265995 175.83843574 -19.3493814 172.76633062 -17.75 169.0625 C-14.57728436 165.12395645 -12.17380924 163.1687247 -7.25 161.75 C1.58148412 161.10500397 8.67163085 167.88898718 14.9609375 173.23046875 C18.47021118 176.19393202 22.13218699 178.94128779 25.8125 181.6875 C26.48450439 182.19104004 27.15650879 182.69458008 27.84887695 183.21337891 C31.31097682 185.79750243 34.79512146 188.34473059 38.31640625 190.84765625 C38.99799805 191.33572754 39.67958984 191.82379883 40.38183594 192.32666016 C41.67479385 193.24997528 42.97334533 194.16552612 44.27832031 195.07177734 C48.45742946 198.06162485 51.48249539 200.52192109 52.40258789 205.74194336 C52.8512179 212.56855876 50.26961462 217.80252607 47.3125 223.8125 C46.82313965 224.83762695 46.3337793 225.86275391 45.82958984 226.91894531 C44.78933928 229.09440433 43.74212113 231.26654335 42.68847656 233.43554688 C41.03339532 236.87294684 39.42969867 240.33066219 37.8359375 243.796875 C36.7871643 246.05241173 35.73770465 248.30762942 34.6875 250.5625 C33.95708496 252.15964844 33.95708496 252.15964844 33.21191406 253.7890625 C30.39333831 259.74734207 28.13575536 263.77587232 22.0625 266.8125 C17.16894257 267.3493831 13.16894102 267.29531063 8.625 265.3125 C5.32050702 262.08860441 3.73758119 259.39677226 3.0625 254.8125 C3.44985589 248.83615204 5.29324382 244.09091648 8.0625 238.8125 C7.3411084 239.048479 6.6197168 239.28445801 5.87646484 239.52758789 C-29.10988342 250.88782859 -64.16820899 258.34583908 -100.9375 260.8125 C-100.9375 265.01396285 -98.73192646 267.52492193 -96.4375 270.875 C-95.97972168 271.54966309 -95.52194336 272.22432617 -95.05029297 272.91943359 C-85.24071118 287.23233436 -73.84086454 300.36152288 -59.9375 310.8125 C-59.15318604 311.40925537 -59.15318604 311.40925537 -58.35302734 312.01806641 C-40.29921337 325.6796918 -20.87826478 334.79952459 1 340.6875 C2.06118042 340.97415527 2.06118042 340.97415527 3.14379883 341.26660156 C17.08383514 344.78231732 30.66191115 345.07287417 44.9375 344.9375 C46.8007764 344.92744227 48.6640581 344.91832139 50.52734375 344.91015625 C55.03919629 344.88838214 59.55078764 344.85400903 64.0625 344.8125 C64.0625 345.4725 64.0625 346.1325 64.0625 346.8125 C16.53729254 351.65143021 -29.70469403 341.53225212 -67.5 311.5 C-68.98495132 310.27782804 -70.46477114 309.04937284 -71.9375 307.8125 C-72.57816406 307.28269531 -73.21882813 306.75289063 -73.87890625 306.20703125 C-75.23715289 305.08198705 -76.58844331 303.94854774 -77.9375 302.8125 C-78.2675 303.8025 -78.5975 304.7925 -78.9375 305.8125 C-80.2575 305.4825 -81.5775 305.1525 -82.9375 304.8125 C-82.9375 304.1525 -82.9375 303.4925 -82.9375 302.8125 C-83.5975 303.1425 -84.2575 303.4725 -84.9375 303.8125 C-84.6075 304.4725 -84.2775 305.1325 -83.9375 305.8125 C-84.5975 305.8125 -85.2575 305.8125 -85.9375 305.8125 C-85.9375 306.4725 -85.9375 307.1325 -85.9375 307.8125 C-86.5975 307.8125 -87.2575 307.8125 -87.9375 307.8125 C-89.59820503 311.12574804 -89.59820503 311.12574804 -89.9375 314.8125 C-88.03999098 317.60882909 -85.50947374 319.64796765 -82.9375 321.8125 C-82.09445313 322.53179687 -81.25140625 323.25109375 -80.3828125 323.9921875 C-39.66540832 356.93332351 10.58480205 369.32812957 62.15234375 364.30859375 C72.75267362 363.00610325 82.96818657 360.23994529 93.0625 356.8125 C93.82949219 356.55452637 94.59648437 356.29655273 95.38671875 356.03076172 C106.74431407 352.16074912 117.54262628 347.587959 128.0625 341.8125 C129.01334473 341.29067139 129.01334473 341.29067139 129.98339844 340.75830078 C144.5570117 332.63914092 157.00670617 322.26638929 169.0625 310.8125 C169.74441406 310.19503906 170.42632812 309.57757813 171.12890625 308.94140625 C202.86621595 279.19181949 221.71536362 231.27441863 223.14501953 188.33398438 C224.19216002 150.74229949 215.75167372 114.77071613 196.09277344 82.50927734 C195.12334149 80.91270103 194.18929719 79.29479036 193.2578125 77.67578125 C190.29650551 72.79248033 190.29650551 72.79248033 185.62890625 69.765625 C183.41104517 69.25354475 181.33285254 68.92576022 179.0625 68.8125 C182.26598176 66.67684549 182.77348239 66.55184526 186.375 66.9375 C187.11363281 67.00195312 187.85226562 67.06640625 188.61328125 67.1328125 C195.36648411 69.00690707 198.57560596 73.41388835 201.9375 79.125 C202.36530762 79.83503174 202.79311523 80.54506348 203.23388672 81.27661133 C204.52815108 83.44519 205.79808559 85.62640991 207.0625 87.8125 C207.42666016 88.43092773 207.79082031 89.04935547 208.16601562 89.68652344 C220.86073729 111.40621201 228.60995145 136.80924535 231.0625 161.8125 C231.22685547 163.34583984 231.22685547 163.34583984 231.39453125 164.91015625 C235.7874975 212.17847313 222.59013909 260.66498867 193.328125 298.18847656 C192.20322998 299.63191824 191.10000105 301.0921861 190 302.5546875 C159.96258093 341.15746435 113.90420228 366.50481988 65.58764648 373.0871582 C15.14126256 378.65662039 -36.22857422 366.54437911 -76.43432617 334.87744141 C-79.6614531 332.25562201 -82.81227692 329.55456044 -85.9375 326.8125 C-86.53030762 326.29800293 -87.12311523 325.78350586 -87.73388672 325.25341797 C-95.27320878 318.67087327 -101.82871268 311.77143976 -107.9375 303.8125 C-108.75992188 302.78253906 -109.58234375 301.75257813 -110.4296875 300.69140625 C-120.02532024 288.6142388 -127.24195089 275.65442074 -133.9375 261.8125 C-134.72387779 259.65663276 -134.72387779 259.65663276 -136.6965332 259.20581055 C-137.45281006 259.03863525 -138.20908691 258.87145996 -138.98828125 258.69921875 C-139.82633301 258.50618164 -140.66438477 258.31314453 -141.52783203 258.11425781 C-142.87530518 257.8102002 -142.87530518 257.8102002 -144.25 257.5 C-158.08335886 254.16825203 -170.00111118 250.50465503 -178.66796875 238.39453125 C-182.08956599 232.36600278 -183.22831687 226.65008793 -181.9375 219.8125 C-177.62296968 207.30685009 -168.41759899 197.23697511 -156.9375 190.8125 C-154.95378558 190.09883233 -152.95621139 189.42015842 -150.9375 188.8125 C-151.00710937 187.11673828 -151.00710937 187.11673828 -151.078125 185.38671875 C-152.42481391 136.70545672 -133.2085724 88.1581449 -99.84765625 52.8515625 C-98.87842818 51.83775324 -97.90835231 50.82475394 -96.9375 49.8125 C-96.42815918 49.27592773 -95.91881836 48.73935547 -95.39404297 48.18652344 C-77.07322328 28.96856475 -28.78809539 -11.63774069 0 0 Z M-148.9375 219.8125 C-150.31982443 221.43876404 -151.65687515 223.1050002 -152.9375 224.8125 C-151.18505753 226.4608633 -151.18505753 226.4608633 -148.9375 227.8125 C-146.72949472 227.59532648 -146.72949472 227.59532648 -144.9375 226.8125 C-145.5975 224.5025 -146.2575 222.1925 -146.9375 219.8125 C-147.5975 219.8125 -148.2575 219.8125 -148.9375 219.8125 Z " fill="#83B318" transform="translate(206.9375,93.1875)"/>
<path d="M0 0 C7.79003764 2.2332317 12.45182113 13.00802515 16.31640625 19.6640625 C18.85811072 24.2829687 21.18056039 29.00012048 23.42285156 33.77050781 C24.23012037 35.48121188 25.06465287 37.17898546 25.90234375 38.875 C45.47942653 80.82589168 44.8539874 131.73493848 29.59716797 174.82568359 C11.4220264 223.41187897 -24.44475029 260.78359426 -71.27734375 282.31640625 C-94.75111399 292.70513565 -118.96564052 298.11051071 -144.62109375 297.9765625 C-145.3857193 297.97407501 -146.15034485 297.97158752 -146.93814087 297.96902466 C-189.08992629 297.757945 -231.60122517 285.07154159 -263.68359375 256.6640625 C-264.59882813 255.90222656 -265.5140625 255.14039063 -266.45703125 254.35546875 C-273.42092735 248.41567502 -273.42092735 248.41567502 -274.5859375 245.08203125 C-274.68359375 242.6640625 -274.68359375 242.6640625 -272.68359375 239.6640625 C-271.69359375 239.6640625 -270.70359375 239.6640625 -269.68359375 239.6640625 C-269.68359375 238.3440625 -269.68359375 237.0240625 -269.68359375 235.6640625 C-268.69359375 235.3340625 -267.70359375 235.0040625 -266.68359375 234.6640625 C-266.68359375 235.3240625 -266.68359375 235.9840625 -266.68359375 236.6640625 C-263.60905815 235.8876693 -263.60905815 235.8876693 -261.68359375 233.6640625 C-260.53697266 234.68113281 -260.53697266 234.68113281 -259.3671875 235.71875 C-251.78559794 242.34439479 -243.94093154 248.1901068 -235.42675781 253.56347656 C-233.86547201 254.54922956 -232.31661969 255.55461128 -230.76953125 256.5625 C-216.9059407 265.19307327 -200.55326337 270.94841401 -184.68359375 274.6640625 C-183.84989258 274.86016113 -183.01619141 275.05625977 -182.15722656 275.25830078 C-161.54049283 279.84438033 -140.66963209 279.07079899 -119.68359375 278.6640625 C-119.35359375 277.6740625 -119.02359375 276.6840625 -118.68359375 275.6640625 C-116.85205078 274.97558594 -116.85205078 274.97558594 -114.44140625 274.5234375 C-113.54993896 274.34409668 -112.65847168 274.16475586 -111.73999023 273.97998047 C-110.77262939 273.79322754 -109.80526855 273.60647461 -108.80859375 273.4140625 C-81.2320199 267.55981777 -55.58930229 255.06440262 -34.9140625 235.73828125 C-32.87199056 233.83926163 -30.76907793 232.06568595 -28.62109375 230.2890625 C-3.27482771 208.09203192 13.48020042 171.15818103 17.859375 138.2421875 C18.31640625 135.6640625 18.31640625 135.6640625 19.32397461 132.96533203 C20.43835904 129.25839323 20.60713255 126.13385649 20.65234375 122.265625 C20.66081329 121.56237595 20.66928284 120.85912689 20.67800903 120.13456726 C20.69777569 117.85248897 20.69784382 115.57121142 20.69140625 113.2890625 C20.68959351 112.11457047 20.68959351 112.11457047 20.68774414 110.91635132 C20.54997819 77.99238882 12.15305796 43.61290208 -8.0078125 16.91015625 C-10.85008336 13.09054313 -11.36920876 10.37766569 -10.68359375 5.6640625 C-8.14131549 0.46897215 -5.34890122 0.09302437 0 0 Z " fill="#84B418" transform="translate(390.68359375,161.3359375)"/>
<path d="M0 0 C0.73863281 0.06445312 1.47726562 0.12890625 2.23828125 0.1953125 C8.99148411 2.06940707 12.20060596 6.47638835 15.5625 12.1875 C15.99030762 12.89753174 16.41811523 13.60756348 16.85888672 14.33911133 C18.15315108 16.50769 19.42308559 18.68890991 20.6875 20.875 C21.05166016 21.49342773 21.41582031 22.11185547 21.79101562 22.74902344 C34.48573729 44.46871201 42.23495145 69.87174535 44.6875 94.875 C44.79707031 95.89722656 44.90664063 96.91945313 45.01953125 97.97265625 C49.4124975 145.24097313 36.21513909 193.72748867 6.953125 231.25097656 C5.82822998 232.69441824 4.72500105 234.1546861 3.625 235.6171875 C-26.41241907 274.21996435 -72.47079772 299.56731988 -120.78735352 306.1496582 C-171.23373744 311.71912039 -222.60357422 299.60687911 -262.80932617 267.93994141 C-266.0364531 265.31812201 -269.18727692 262.61706044 -272.3125 259.875 C-272.90530762 259.36050293 -273.49811523 258.84600586 -274.10888672 258.31591797 C-281.64820878 251.73337327 -288.20371268 244.83393976 -294.3125 236.875 C-295.13492188 235.84503906 -295.95734375 234.81507813 -296.8046875 233.75390625 C-306.40032024 221.6767388 -313.61695089 208.71692074 -320.3125 194.875 C-321.09887779 192.71913276 -321.09887779 192.71913276 -323.0715332 192.26831055 C-323.82781006 192.10113525 -324.58408691 191.93395996 -325.36328125 191.76171875 C-326.20133301 191.56868164 -327.03938477 191.37564453 -327.90283203 191.17675781 C-329.25030518 190.8727002 -329.25030518 190.8727002 -330.625 190.5625 C-344.45835886 187.23075203 -356.37611118 183.56715503 -365.04296875 171.45703125 C-368.53047733 165.31237328 -368.90780106 159.83340799 -368.3125 152.875 C-367.9825 152.875 -367.6525 152.875 -367.3125 152.875 C-367.21453125 153.45507812 -367.1165625 154.03515625 -367.015625 154.6328125 C-365.26818605 163.76167461 -360.86655805 169.54713787 -353.3125 174.875 C-347.89936101 177.95606339 -342.55862524 179.8053414 -336.375 180.5078125 C-323.14994243 182.10372913 -323.14994243 182.10372913 -319.79394531 185.33886719 C-317.21767007 189.11360627 -315.74780836 193.34605816 -314.20507812 197.62109375 C-312.6733232 201.48902631 -310.57085479 205.00057025 -308.4375 208.5625 C-308.01718506 209.27180664 -307.59687012 209.98111328 -307.16381836 210.71191406 C-301.22422954 220.5540773 -294.05594218 229.29032491 -286.265625 237.734375 C-284.68347392 239.46841258 -283.20303119 241.22199382 -281.75 243.0625 C-278.56924992 246.73259625 -275.03076435 249.76262778 -271.3125 252.875 C-270.50941406 253.5659375 -269.70632813 254.256875 -268.87890625 254.96875 C-261.96336477 260.8053437 -254.68712682 265.88859664 -247.0703125 270.75097656 C-245.54853446 271.72406908 -244.03872658 272.71583358 -242.53125 273.7109375 C-205.71504416 296.77520763 -154.87382276 304.66690182 -112.43310547 295.37548828 C-105.94913671 293.84519402 -99.62056113 292.01685289 -93.3125 289.875 C-92.54550781 289.61702637 -91.77851563 289.35905273 -90.98828125 289.09326172 C-79.63068593 285.22324912 -68.83237372 280.650459 -58.3125 274.875 C-57.36165527 274.35317139 -57.36165527 274.35317139 -56.39160156 273.82080078 C-41.8179883 265.70164092 -29.36829383 255.32888929 -17.3125 243.875 C-16.63058594 243.25753906 -15.94867188 242.64007813 -15.24609375 242.00390625 C16.49121595 212.25431949 35.34036362 164.33691863 36.77001953 121.39648438 C37.81716002 83.80479949 29.37667372 47.83321613 9.71777344 15.57177734 C8.74834149 13.97520103 7.81429719 12.35729036 6.8828125 10.73828125 C3.92150551 5.85498033 3.92150551 5.85498033 -0.74609375 2.828125 C-2.96395483 2.31604475 -5.04214746 1.98826022 -7.3125 1.875 C-4.10901824 -0.26065451 -3.60151761 -0.38565474 0 0 Z " fill="#010200" transform="translate(393.3125,160.125)"/>
<path d="M0 0 C8.31108122 5.57389878 13.94341573 13.0167459 15.9375 22.875 C17.14907938 34.77624329 15.38356256 44.56320546 7.83203125 53.98828125 C0.13559632 61.65297831 -8.29916246 64.80141049 -18.875 65.25 C-28.55220443 65.05474745 -37.05312471 61.56157511 -44.0625 54.875 C-51.28839967 46.81155287 -54.43385184 38.36661413 -54.2734375 27.5546875 C-53.54558404 18.30825278 -49.63935428 10.38940207 -43.05859375 3.8984375 C-30.19919515 -6.91357921 -14.52555594 -8.1512343 0 0 Z M-26.0625 27.875 C-26.13339184 31.41959212 -25.71656211 33.09515672 -23.4375 35.8125 C-19.98732276 37.35600034 -17.66250284 36.80833407 -14.0625 35.875 C-11.73500655 32.38375983 -11.55950684 30.98277749 -12.0625 26.875 C-14.01773737 24.12318444 -15.20309407 23.07332445 -18.5 22.3125 C-22.29742622 23.14608137 -23.77959901 24.78636925 -26.0625 27.875 Z " fill="#85B518" transform="translate(322.0625,97.125)"/>
<path d="M0 0 C19.26689195 14.62710981 32.06149422 35.06604371 35.66015625 59.16796875 C37.90524044 76.43565642 35.81312656 97.26663828 25.87109375 112.1796875 C25.21665239 117.90604938 26.60191788 121.15166062 29.87109375 125.6796875 C30.70614993 126.91244456 31.53676154 128.1482221 32.36328125 129.38671875 C32.78448242 130.01529785 33.20568359 130.64387695 33.63964844 131.29150391 C43.65064198 146.64142938 49.91318567 164.36910116 53.87109375 182.1796875 C54.020625 182.81583984 54.17015625 183.45199219 54.32421875 184.10742188 C56.99345505 195.85436267 57.13636291 207.56839865 57.12109375 219.5546875 C57.12040894 220.33815552 57.11972412 221.12162354 57.11901855 221.92883301 C57.07805394 236.14504293 57.07805394 236.14504293 55.87109375 241.1796875 C55.54109375 241.1796875 55.21109375 241.1796875 54.87109375 241.1796875 C54.88156738 240.43098389 54.89204102 239.68228027 54.90283203 238.91088867 C55.39577537 198.16818592 49.0781141 160.3988361 25.05078125 126.40625 C23.67339145 123.80654077 23.63533922 122.08049325 23.87109375 119.1796875 C23.21109375 119.1796875 22.55109375 119.1796875 21.87109375 119.1796875 C21.63777344 119.97632813 21.40445313 120.77296875 21.1640625 121.59375 C14.91636312 138.92120629 3.80936572 154.81175322 -6.12890625 170.1796875 C-6.59683594 170.90381836 -7.06476563 171.62794922 -7.546875 172.37402344 C-10.34726806 176.6844746 -13.21505844 180.94522065 -16.12890625 185.1796875 C-16.64243652 185.92605469 -17.1559668 186.67242187 -17.68505859 187.44140625 C-24.22930069 196.92282787 -30.89230004 206.31676205 -37.69140625 215.6171875 C-38.2627832 216.40383789 -38.83416016 217.19048828 -39.42285156 218.00097656 C-45.83353465 226.70688939 -45.83353465 226.70688939 -49.12890625 229.1796875 C-53.38723884 229.33092684 -55.3486701 228.8566388 -58.578125 226.0546875 C-59.31675781 225.1059375 -60.05539062 224.1571875 -60.81640625 223.1796875 C-61.23374023 222.64988281 -61.65107422 222.12007812 -62.08105469 221.57421875 C-67.13044802 215.06991548 -71.81866152 208.28814534 -76.50195312 201.51855469 C-78.18039452 199.10566924 -79.87858715 196.70778984 -81.58203125 194.3125 C-94.28586167 176.41196725 -105.72005165 157.88319735 -116.61328125 138.82958984 C-117.52483709 137.23583547 -118.4402736 135.64427853 -119.36328125 134.05712891 C-133.99976573 108.83438278 -145.35772294 79.48221228 -138.12890625 50.1796875 C-137.79890625 50.1796875 -137.46890625 50.1796875 -137.12890625 50.1796875 C-137.0495054 54.46733334 -137.14949033 58.4970545 -137.75390625 62.7421875 C-142.03605629 105.56368792 -104.18018494 153.09119144 -81.12890625 186.1796875 C-80.6076416 186.93056641 -80.08637695 187.68144531 -79.54931641 188.45507812 C-71.76322388 199.65689453 -63.67147839 210.5403022 -55.12890625 221.1796875 C-19.55107277 178.1990129 32.01238689 113.53521472 26.66894531 54.96386719 C24.68539199 40.27060236 17.65243436 27.7864686 8.87109375 16.1796875 C8.16919922 15.19935547 8.16919922 15.19935547 7.453125 14.19921875 C-5.01385515 -1.95031554 -25.33428949 -10.32642564 -44.9140625 -13.41796875 C-49.81424575 -13.98130343 -54.70302276 -13.92935064 -59.62890625 -13.8828125 C-61.005625 -13.87604492 -61.005625 -13.87604492 -62.41015625 -13.86914062 C-64.64981016 -13.85747576 -66.8893217 -13.84110864 -69.12890625 -13.8203125 C-69.12890625 -14.1503125 -69.12890625 -14.4803125 -69.12890625 -14.8203125 C-45.19644139 -19.76769599 -19.8314049 -13.95835936 0 0 Z " fill="#020301" transform="translate(355.12890625,54.8203125)"/>
<path d="M0 0 C10.93390623 -0.57323392 10.93390623 -0.57323392 15 3 C17.66959057 6.52767325 18.73534551 9.58909178 19 14 C18.012242 19.63022059 16.3863785 22.38109768 12 26 C8.65133743 27.54459833 5.1897307 28.66778112 1.6875 29.8125 C-18.43777205 36.78313537 -36.97603542 46.8486585 -53 61 C-53.97453125 61.84175781 -54.9490625 62.68351562 -55.953125 63.55078125 C-86.66798926 90.50897374 -105.91665554 130.31838691 -109 171 C-109.86917775 191.62926839 -108.56895144 212.29314568 -102 232 C-87.46399228 232.34775138 -73.33575898 232.04245726 -58.92407227 229.97924805 C-57.94108154 229.84043213 -56.95809082 229.70161621 -55.9453125 229.55859375 C-54.65391357 229.36221313 -54.65391357 229.36221313 -53.33642578 229.16186523 C-50.96506005 228.9975794 -49.25324646 229.28719853 -47 230 C-50.97390495 231.81666903 -54.52380408 232.43617644 -58.86328125 232.8515625 C-59.52455017 232.9154567 -60.18581909 232.97935089 -60.86712646 233.04518127 C-63.01481646 233.24817391 -65.16338654 233.43771973 -67.3125 233.625 C-68.04266327 233.69103424 -68.77282654 233.75706848 -69.52511597 233.82510376 C-82.69578458 235.00446702 -95.77627065 235.37485495 -109 235 C-123.97852355 193.48591951 -120.32199232 147.90850609 -102.01464844 108.13085938 C-93.79182506 90.86213886 -82.31853674 75.62515054 -69 62 C-68.36191406 61.30003906 -67.72382812 60.60007813 -67.06640625 59.87890625 C-49.09068359 40.62206304 -23.87354568 27.608999 0.84472656 19.43310547 C4.15873895 18.29307959 6.50393437 17.48183812 9.04296875 15.015625 C10.59529716 11.74623128 9.91520674 9.41677181 9 6 C6.89669816 3.14551893 5.67457332 2.18397454 2.25 1.25 C1.5075 1.1675 0.765 1.085 0 1 C0 0.67 0 0.34 0 0 Z " fill="#020200" transform="translate(194,92)"/>
<path d="M0 0 C3.63346149 2.55115381 4.77396372 4.2554099 6.0625 8.5 C5.98339285 12.93000067 5.13402449 13.91934125 2 17 C-0.71461338 18.36908335 -3.54668889 19.2610863 -6.4375 20.1875 C-32.11808606 29.07712513 -53.16569971 42.54035418 -73 61 C-73.67804688 61.62390625 -74.35609375 62.2478125 -75.0546875 62.890625 C-84.54771747 71.96428417 -91.91426383 83.01512969 -99 94 C-102.12317779 91.19500118 -102.55493858 89.18357737 -103 85 C-103 84.34 -103 83.68 -103 83 C-103.99 83.495 -103.99 83.495 -105 84 C-105.433125 83.0409375 -105.433125 83.0409375 -105.875 82.0625 C-106.82823451 79.84793921 -106.82823451 79.84793921 -109 79 C-110.65 80.32 -112.3 81.64 -114 83 C-112.41330621 78.12725399 -109.62689666 74.46610625 -106.5625 70.4375 C-106.02681396 69.73004639 -105.49112793 69.02259277 -104.93920898 68.29370117 C-99.98455829 61.83609355 -94.66390766 55.84766405 -89 50 C-88.49355957 49.46777832 -87.98711914 48.93555664 -87.46533203 48.38720703 C-69.26588923 29.29151589 -28.51462529 -5.28048616 0 0 Z " fill="#84B318" transform="translate(199,93)"/>
<path d="M0 0 C13.57174658 10.35835753 23.87742722 24.87689342 26.765625 42.00390625 C27.33767983 49.31667387 27.13542163 56.67218499 27 64 C26.34 64 25.68 64 25 64 C25.03480469 63.46375 25.06960938 62.9275 25.10546875 62.375 C25.70089918 45.13587126 20.48276275 29.1896425 9.3125 16 C-1.36642861 5.10814796 -15.86501463 -1.97746876 -31.15869141 -2.29248047 C-49.07164748 -2.42153181 -63.51273509 2.10190473 -76.71875 14.66015625 C-87.81696411 26.04342723 -93.85226161 39.32565712 -94.375 55.1875 C-93.6861545 91.73256627 -63.27085719 129.79422785 -43.27124023 158.67236328 C-42.87059357 159.25446564 -42.4699469 159.83656799 -42.05715942 160.43630981 C-40.96330565 162.0251068 -39.86427049 163.61033295 -38.76489258 165.1953125 C-37.1363444 167.78332764 -35.86344201 170.06800617 -35 173 C-36.375 175.3125 -36.375 175.3125 -38 177 C-65.70553897 142.95906475 -105.9393326 89.67790433 -103 44 C-100.70270745 26.63331135 -90.41993935 11.65188198 -76.86328125 1.0390625 C-53.94438388 -15.28244422 -23.48642401 -15.7941083 0 0 Z " fill="#020200" transform="translate(338,70)"/>
<path d="M0 0 C-0.99062159 2.16491465 -2.01334575 4.30116245 -3.0625 6.4375 C-3.33771484 7.04916016 -3.61292969 7.66082031 -3.89648438 8.29101562 C-4.78515625 10.05859375 -4.78515625 10.05859375 -7 13 C-9.9765625 13.6796875 -9.9765625 13.6796875 -11.81958008 13.7800293 C-14.57789017 14.0583002 -17.026932 14.81898647 -19.67578125 15.63671875 C-20.73740479 15.96381836 -21.79902832 16.29091797 -22.89282227 16.62792969 C-24.02131592 16.97758789 -25.14980957 17.32724609 -26.3125 17.6875 C-56.09007356 26.67467087 -85.97881256 31.91894952 -117 34 C-117 38.20146285 -114.79442646 40.71242193 -112.5 44.0625 C-112.04222168 44.73716309 -111.58444336 45.41182617 -111.11279297 46.10693359 C-101.30321118 60.41983436 -89.90336454 73.54902288 -76 84 C-75.47712402 84.39783691 -74.95424805 84.79567383 -74.41552734 85.20556641 C-56.36171337 98.8671918 -36.94076478 107.98702459 -15.0625 113.875 C-14.35504639 114.06610352 -13.64759277 114.25720703 -12.91870117 114.45410156 C1.02133514 117.96981732 14.59941115 118.26037417 28.875 118.125 C30.7382764 118.11494227 32.6015581 118.10582139 34.46484375 118.09765625 C38.97669629 118.07588214 43.48828764 118.04150903 48 118 C48 118.66 48 119.32 48 120 C0.52740323 124.83357349 -45.14421848 114.68609371 -83.125 85.125 C-95.50318201 74.90939554 -106.63030414 63.89548301 -116.0625 50.875 C-116.53308838 50.23731689 -117.00367676 49.59963379 -117.48852539 48.94262695 C-122.54485104 41.78318938 -126.19579604 33.86873046 -130 26 C-129.0613208 25.93530518 -128.1226416 25.87061035 -127.15551758 25.80395508 C-106.18489451 24.33059266 -85.62425762 22.24260038 -65 18 C-63.94876953 17.78504883 -62.89753906 17.57009766 -61.81445312 17.34863281 C-43.07604219 13.4139194 -23.27312986 8.17888211 -5.8203125 0.13671875 C-3 -1 -3 -1 0 0 Z " fill="#030401" transform="translate(223,320)"/>
<path d="M0 0 C6.78676368 3.89710978 12.94372643 8.91482148 19.125 13.6875 C26.12255103 19.05823185 33.1504317 24.37363843 40.29345703 29.54956055 C41.86771736 30.69228726 43.43414271 31.84578561 45 33 C45.9178125 33.67546875 46.835625 34.3509375 47.78125 35.046875 C50.4697704 37.41353029 51.71304989 39.43763015 52.36230469 42.97265625 C52.55824836 49.84674561 50.24546392 54.91208581 47.25 61 C46.76063965 62.02512695 46.2712793 63.05025391 45.76708984 64.10644531 C44.72683928 66.28190433 43.67962113 68.45404335 42.62597656 70.62304688 C40.97089532 74.06044684 39.36719867 77.51816219 37.7734375 80.984375 C36.7246643 83.23991173 35.67520465 85.49512942 34.625 87.75 C34.13805664 88.81476563 33.65111328 89.87953125 33.14941406 90.9765625 C30.33083831 96.93484207 28.07325536 100.96337232 22 104 C17.10644257 104.5368831 13.10644102 104.48281063 8.5625 102.5 C5.30371922 99.32070167 3.82904115 96.46853178 3 92 C3.05635153 89.5064448 3.4384314 87.45048116 4 85 C4.33 85 4.66 85 5 85 C5.42317708 87.01822917 5.84635417 89.03645833 6.26953125 91.0546875 C6.92308838 93.37046549 6.92308838 93.37046549 10 95 C11.95379499 95.27785432 11.95379499 95.27785432 14 95.1875 C14.680625 95.18105469 15.36125 95.17460937 16.0625 95.16796875 C18.21758209 95.05697746 18.21758209 95.05697746 21 94 C21.71805356 92.01786894 22.3705995 90.01203863 23 88 C24.42931907 84.89654577 26.00897692 81.87079189 27.5703125 78.83203125 C28.47635508 77.03375424 29.38126778 75.23490759 30.28515625 73.43554688 C31.70119296 70.62381459 33.12320453 67.81598531 34.56494141 65.01733398 C35.96222567 62.29874128 37.33069358 59.56713636 38.6953125 56.83203125 C39.12651398 56.01080276 39.55771545 55.18957428 40.00198364 54.34346008 C43.06727289 48.11379782 43.50625311 42.89311744 43 36 C42.15695313 35.78472656 41.31390625 35.56945312 40.4453125 35.34765625 C36.20977658 33.690899 33.32580622 31.34147924 29.875 28.4375 C28.54020966 27.34235033 27.20425931 26.24861305 25.8671875 25.15625 C25.21073242 24.61742187 24.55427734 24.07859375 23.87792969 23.5234375 C20.37062758 20.67820022 16.74950379 17.99099535 13.1171875 15.30859375 C10.77097971 13.57098873 8.44793575 11.81326637 6.1328125 10.03515625 C4.79708131 9.02316514 3.46114624 8.01144306 2.125 7 C1.50625 6.51845459 0.8875 6.03690918 0.25 5.54077148 C-3.47074495 2.75071612 -6.22276653 1.35062264 -11 1 C-7.16561058 -1.60738481 -4.38290645 -1.14961481 0 0 Z " fill="#020301" transform="translate(207,256)"/>
<path d="M0 0 C9.21649164 4.2710571 16.55117471 10.55204235 20.58203125 20.08984375 C23.5160588 29.42895823 23.5917631 39.85086266 19.328125 48.76171875 C14.26206493 57.71864 7.28233737 64.37581708 -2.85546875 67.40234375 C-13.40702266 69.31885048 -22.88202488 68.08641919 -32.171875 62.64453125 C-40.04298098 57.17807055 -44.8963125 49.76496023 -47.60546875 40.65234375 C-48.45048238 33.38522654 -47.99435118 26.97263445 -45.91796875 19.96484375 C-44.81131324 23.45376533 -44.94470645 26.51563989 -45.10546875 30.15234375 C-45.14694123 39.42144322 -42.09543645 45.48728171 -35.85546875 52.23828125 C-29.02380263 58.32617727 -21.35929916 59.32946649 -12.49609375 59.23828125 C-4.03210769 58.59147009 2.50825037 54.22928878 8.08203125 47.96484375 C14.04168681 40.13917953 14.23724083 31.35927541 13.08203125 21.96484375 C10.5501596 12.75803774 3.85160559 6.92197984 -4.04296875 2.02734375 C-9.84954346 -0.13453132 -16.77368417 0.19416711 -22.91796875 -0.03515625 C-16.17770387 -4.05369897 -7.0479514 -2.7556855 0 0 Z " fill="#020301" transform="translate(315.91796875,94.03515625)"/>
<path d="M0 0 C3.76013514 3.22297297 3.76013514 3.22297297 4.625 6.25 C4.875 9.875 4.875 9.875 4.625 13.25 C3.965 13.91 3.305 14.57 2.625 15.25 C1.965 12.94 1.305 10.63 0.625 8.25 C-2.68067489 7.39612895 -2.68067489 7.39612895 -6.375 7.25 C-9.0219872 8.64685006 -9.0219872 8.64685006 -10.375 11.25 C-10.78642752 14.3654892 -10.78642752 14.3654892 -9.375 17.25 C-7.08584975 18.71614623 -4.99467055 19.39265327 -2.375 20.25 C-4.375 22.25 -4.375 22.25 -6.36328125 22.40234375 C-10.69454547 22.00197479 -12.8728491 21.64753613 -16.375 18.875 C-19.55040372 14.70728262 -19.81121894 11.39738355 -19.375 6.25 C-17.76179279 3.19642921 -16.34439098 1.01166434 -13.625 -1.125 C-8.40862133 -2.57399408 -4.72603481 -2.45053657 0 0 Z " fill="#030301" transform="translate(307.375,113.75)"/>
<path d="M0 0 C0.48062124 2.68724704 0.95953496 5.37478033 1.4375 8.0625 C1.57220703 8.81466797 1.70691406 9.56683594 1.84570312 10.34179688 C2.6521177 14.88525458 3.37461944 19.42804307 4 24 C-3.32946833 22.85852542 -10.58750835 21.41249165 -16 16 C-15.88864702 11.99129281 -14.22813511 9.45668173 -11.6015625 6.4921875 C-8.54355149 3.64301626 -4.32257258 0 0 0 Z M-3 12 C-4.38232443 13.62626404 -5.71937515 15.2925002 -7 17 C-5.24755753 18.6483633 -5.24755753 18.6483633 -3 20 C-0.79199472 19.78282648 -0.79199472 19.78282648 1 19 C0.34 16.69 -0.32 14.38 -1 12 C-1.66 12 -2.32 12 -3 12 Z " fill="#050601" transform="translate(61,301)"/>
<path d="M0 0 C2 3 2 3 3.30078125 5.43359375 C5.27499302 8.41533428 7.28297341 9.98325959 10.1875 12.0625 C11.24324219 12.83078125 12.29898438 13.5990625 13.38671875 14.390625 C13.96212402 14.80505859 14.5375293 15.21949219 15.13037109 15.64648438 C18.61250612 18.16737189 22.05508621 20.74112214 25.5 23.3125 C26.18215576 23.81595947 26.86431152 24.31941895 27.56713867 24.83813477 C30.96196126 27.36621209 34.10388111 29.88962742 37 33 C35.03533587 34.06775224 33.03144641 35.06553465 31 36 C29 35 29 35 26.87109375 32.8125 C23.58148623 29.45659405 19.84680371 26.76883132 16.0625 24 C1.17327692 13.04509077 1.17327692 13.04509077 0 8 C-0.14059443 5.3086209 -0.0915082 2.6994918 0 0 Z " fill="#030401" transform="translate(188,265)"/>
<path d="M0 0 C0.33 1.32 0.66 2.64 1 4 C0.34 4 -0.32 4 -1 4 C-0.34 6.64 0.32 9.28 1 12 C-1.97 11.505 -1.97 11.505 -5 11 C-5.103125 11.639375 -5.20625 12.27875 -5.3125 12.9375 C-5.539375 13.618125 -5.76625 14.29875 -6 15 C-6.99 15.33 -7.98 15.66 -9 16 C-10.22520264 19.00847418 -10.22520264 19.00847418 -11 22 C-11.66 22 -12.32 22 -13 22 C-13.061875 22.5775 -13.12375 23.155 -13.1875 23.75 C-14.32027301 26.88690987 -16.34197595 28.09167504 -19 30 C-19.66 29.67 -20.32 29.34 -21 29 C-20.56792236 28.53053955 -20.13584473 28.0610791 -19.69067383 27.57739258 C-15.17881248 22.56509914 -11.35404918 17.33951132 -7.6875 11.6875 C-7.16349609 10.89021484 -6.63949219 10.09292969 -6.09960938 9.27148438 C-5.13618893 7.80476619 -4.17517093 6.33646456 -3.2175293 4.8659668 C-2.15494132 3.2374607 -1.07862096 1.61793143 0 0 Z " fill="#759627" transform="translate(390,355)"/>
<path d="M0 0 C7.13840513 -0.60494959 7.13840513 -0.60494959 10.9375 2.0625 C13.37939492 5.54035034 14 7.7627941 14 12 C12.5625 13.9375 12.5625 13.9375 11 15 C11 13.35 11 11.7 11 10 C9.02 10.99 9.02 10.99 7 12 C5.7619986 8.42355152 6.25073929 5.66305234 7 2 C4.69 1.67 2.38 1.34 0 1 C0 0.67 0 0.34 0 0 Z " fill="#7AA123" transform="translate(191,93)"/>
<path d="M0 0 C1 3 1 3 0.34765625 5.09375 C-1.78546678 8.11103706 -4.54925302 8.25357833 -8.00390625 9.09375 C-8.99197266 9.54234375 -8.99197266 9.54234375 -10 10 C-10.84549103 12.02389925 -10.84549103 12.02389925 -11 14 C-12.36125 13.9690625 -12.36125 13.9690625 -13.75 13.9375 C-16.43791858 13.98919074 -18.49820306 14.07340854 -21 15 C-21.33 15.66 -21.66 16.32 -22 17 C-22.66 16.34 -23.32 15.68 -24 15 C-22.9378125 14.41992188 -21.875625 13.83984375 -20.78125 13.2421875 C-13.49029071 9.22371809 -6.48293301 5.26738307 0 0 Z " fill="#718E23" transform="translate(345,406)"/>
<path d="M0 0 C0.66 0 1.32 0 2 0 C2.33 1.32 2.66 2.64 3 4 C2.01 4.495 2.01 4.495 1 5 C1 6.98 1 8.96 1 11 C-0.65 11 -2.3 11 -4 11 C-4.28875 11.928125 -4.5775 12.85625 -4.875 13.8125 C-6 17 -6 17 -8 20 C-8.99 19.67 -9.98 19.34 -11 19 C-9.2204041 15.82640211 -7.42438252 12.66241477 -5.625 9.5 C-5.11710937 8.59378906 -4.60921875 7.68757812 -4.0859375 6.75390625 C-3.59609375 5.89667969 -3.10625 5.03945312 -2.6015625 4.15625 C-2.15119629 3.36025391 -1.70083008 2.56425781 -1.23681641 1.74414062 C-0.82866699 1.16857422 -0.42051758 0.59300781 0 0 Z " fill="#77971F" transform="translate(347,172)"/>
<path d="M0 0 C0 1.32 0 2.64 0 4 C-0.99 4.66 -1.98 5.32 -3 6 C-2.67 6.66 -2.34 7.32 -2 8 C-2.66 8 -3.32 8 -4 8 C-4.33 8.66 -4.66 9.32 -5 10 C-5.99 9.67 -6.98 9.34 -8 9 C-10.50240018 10.30117552 -10.50240018 10.30117552 -13 12 C-14.32703571 12.67911593 -15.6593482 13.34817566 -17 14 C-5.85714286 0 -5.85714286 0 0 0 Z " fill="#7DA024" transform="translate(256,53)"/>
<path d="M0 0 C0 0.99 0 1.98 0 3 C-1.32 3 -2.64 3 -4 3 C-4.33 4.65 -4.66 6.3 -5 8 C-7.475 7.505 -7.475 7.505 -10 7 C-10.226875 7.61875 -10.45375 8.2375 -10.6875 8.875 C-12.38454792 11.62260139 -14.02514071 11.93210179 -17 13 C-17.33 13.66 -17.66 14.32 -18 15 C-19.97888961 15.72693904 -21.97954558 16.39816251 -24 17 C-19.31028765 11.82514499 -13.69447804 7.99949411 -8 4 C-7.34773438 3.53722656 -6.69546875 3.07445313 -6.0234375 2.59765625 C-2.27024021 0 -2.27024021 0 0 0 Z " fill="#7D9E23" transform="translate(150,112)"/>
<path d="M0 0 C0.33 0 0.66 0 1 0 C1.02683987 2.97922593 1.04676037 5.95821295 1.0625 8.9375 C1.07087891 9.78763672 1.07925781 10.63777344 1.08789062 11.51367188 C1.09111328 12.32255859 1.09433594 13.13144531 1.09765625 13.96484375 C1.10289307 14.7137085 1.10812988 15.46257324 1.11352539 16.23413086 C1 18 1 18 0 19 C-0.23363881 20.84891946 -0.41303635 22.70488031 -0.5625 24.5625 C-0.64628906 25.57441406 -0.73007812 26.58632813 -0.81640625 27.62890625 C-0.87699219 28.41136719 -0.93757813 29.19382812 -1 30 C-1.99 30.33 -2.98 30.66 -4 31 C-3.88467064 29.12438033 -3.7572641 27.24950159 -3.625 25.375 C-3.55539062 24.33085937 -3.48578125 23.28671875 -3.4140625 22.2109375 C-3 19 -3 19 -2 16.03125 C-0.88861012 12.66234943 -0.59142897 9.66000651 -0.375 6.125 C-0.30023438 4.97257812 -0.22546875 3.82015625 -0.1484375 2.6328125 C-0.09945313 1.76398438 -0.05046875 0.89515625 0 0 Z " fill="#657F21" transform="translate(412,278)"/>
<path d="M0 0 C2 1 2 1 2.81640625 2.85546875 C4.2138821 7.22349536 5.41438004 11.43216431 6 16 C6.66 16 7.32 16 8 16 C8.91058531 19.07322544 9.08886184 21.80097361 9 25 C5.7208285 21.29739194 4.39290417 17.0968299 2.8125 12.5 C2.40354492 11.36111328 2.40354492 11.36111328 1.98632812 10.19921875 C0.68840366 6.48435725 0 4.02412659 0 0 Z " fill="#80A526" transform="translate(219,138)"/>
<path d="M0 0 C0.61328125 1.890625 0.61328125 1.890625 1 4 C0.1028125 4.86625 0.1028125 4.86625 -0.8125 5.75 C-6.08344147 11.1715398 -5.17933465 18.98880954 -5.10253906 26.0715332 C-5.07508379 27.71448161 -5.03850141 29.35727334 -5 31 C-8.53536993 25.6969451 -7.44028997 18.78897422 -6.72265625 12.61328125 C-5.6583519 7.45393922 -3.2004455 4.042668 0 0 Z " fill="#87A72B" transform="translate(277,103)"/>
<path d="M0 0 C1.91676746 5.94197912 -0.17641753 11.9589478 -2.4375 17.5625 C-4 20 -4 20 -7 21 C-4.66666667 14 -2.33333333 7 0 0 Z " fill="#5B721D" transform="translate(404,321)"/>
<path d="M0 0 C0.33 0 0.66 0 1 0 C1 9.57 1 19.14 1 29 C0.34 27.68 -0.32 26.36 -1 25 C-1.66 24.34 -2.32 23.68 -3 23 C-2.67854004 22.4337793 -2.35708008 21.86755859 -2.02587891 21.28417969 C-0.92710244 18.83768931 -0.69398432 17.11827998 -0.5859375 14.453125 C-0.54726562 13.60878906 -0.50859375 12.76445312 -0.46875 11.89453125 C-0.4378125 11.02183594 -0.406875 10.14914062 -0.375 9.25 C-0.33632812 8.36183594 -0.29765625 7.47367187 -0.2578125 6.55859375 C-0.16379127 4.3726002 -0.07813857 2.18660938 0 0 Z " fill="#89B424" transform="translate(75,261)"/>
<path d="M0 0 C0 0.33 0 0.66 0 1 C-1.3303125 1.061875 -1.3303125 1.061875 -2.6875 1.125 C-7.16431376 2.30755458 -8.52899286 4.14813593 -11 8 C-11.41990073 11.25276753 -11.41990073 11.25276753 -11 14 C-13 12 -13 12 -13.375 8.6875 C-13 5 -13 5 -11.5625 2.0625 C-7.85142217 -0.92446508 -4.59138561 -0.44147939 0 0 Z " fill="#7FA128" transform="translate(393,162)"/>
<path d="M0 0 C0 2.83967231 -0.40267181 5.23735711 -1 8 C-2.32 8 -3.64 8 -5 8 C-5 8.99 -5 9.98 -5 11 C-5.66 11 -6.32 11 -7 11 C-7.103125 11.639375 -7.20625 12.27875 -7.3125 12.9375 C-7.539375 13.618125 -7.76625 14.29875 -8 15 C-8.99 15.33 -9.98 15.66 -11 16 C-9.6020749 11.93064734 -7.66821145 9.06055399 -4.9375 5.75 C-4.22464844 4.87859375 -3.51179687 4.0071875 -2.77734375 3.109375 C-1.88187356 2.04661917 -0.98267919 0.98267919 0 0 Z " fill="#758E24" transform="translate(238,67)"/>
<path d="M0 0 C0 0.99 0 1.98 0 3 C-0.66 3 -1.32 3 -2 3 C-1.01 4.485 -1.01 4.485 0 6 C-0.375 8.1875 -0.375 8.1875 -1 10 C-1.53625 9.62875 -2.0725 9.2575 -2.625 8.875 C-5.94612897 7.65142617 -7.81090417 8.69536989 -11 10 C-7.84778899 5.58690458 -4.44536093 2.99206986 0 0 Z " fill="#799924" transform="translate(48,285)"/>
<path d="M0 0 C3.72528736 3.72528736 3.05452532 9.95202804 3.0625 15 C3.04673341 16.33340287 3.02777514 17.66679321 3 19 C2.67 19 2.34 19 2 19 C1.67 17.35 1.34 15.7 1 14 C0.01 14 -0.98 14 -2 14 C-2 12 -2 12 0 10 C0.24287489 7.55987051 0.24287489 7.55987051 0.125 4.875 C0.10695313 3.96492187 0.08890625 3.05484375 0.0703125 2.1171875 C0.04710937 1.41851562 0.02390625 0.71984375 0 0 Z " fill="#7AA020" transform="translate(427,241)"/>
<path d="M0 0 C0.33 0 0.66 0 1 0 C1 1.98 1 3.96 1 6 C0.34 6 -0.32 6 -1 6 C-0.67 7.32 -0.34 8.64 0 10 C-0.99 10.33 -1.98 10.66 -3 11 C-4.22520264 14.00847418 -4.22520264 14.00847418 -5 17 C-6.34581972 12.96254085 -5.19157055 11.27844375 -3.625 7.375 C-3.16351563 6.20710938 -2.70203125 5.03921875 -2.2265625 3.8359375 C-1 1 -1 1 0 0 Z " fill="#617D21" transform="translate(224,88)"/>
<path d="M0 0 C0.9681648 3.8726592 1.07622858 7.03611362 1 11 C0.01 11.33 -0.98 11.66 -2 12 C-2.33 13.98 -2.66 15.96 -3 18 C-3.33 17.34 -3.66 16.68 -4 16 C-4.66 15.67 -5.32 15.34 -6 15 C-4.02 10.05 -2.04 5.1 0 0 Z " fill="#617C1F" transform="translate(359,145)"/>
<path d="M0 0 C0 0.66 0 1.32 0 2 C-3.13349732 3.04449911 -3.98968256 2.93423645 -7 2 C-7 2.66 -7 3.32 -7 4 C-12.08086796 4.84681133 -16.84828377 5.09038099 -22 5 C-22 4.67 -22 4.34 -22 4 C-19.08444885 3.32810344 -16.16773049 2.66230692 -13.25 2 C-12.0125 1.71382813 -12.0125 1.71382813 -10.75 1.421875 C-9.95078125 1.24140625 -9.1515625 1.0609375 -8.328125 0.875 C-7.5949707 0.70742188 -6.86181641 0.53984375 -6.10644531 0.3671875 C-4 0 -4 0 0 0 Z " fill="#435117" transform="translate(294,433)"/>
<path d="M0 0 C-8.71207284 4.7540499 -8.71207284 4.7540499 -14 5 C-14.99 4.34 -15.98 3.68 -17 3 C-14.01868487 1.36062254 -11.26954472 0.48091923 -7.9375 -0.1875 C-7.08027344 -0.36667969 -6.22304687 -0.54585938 -5.33984375 -0.73046875 C-3 -1 -3 -1 0 0 Z " fill="#5B701E" transform="translate(161,319)"/>
<path d="M0 0 C0.33 1.32 0.66 2.64 1 4 C0.34 4 -0.32 4 -1 4 C-0.34 6.64 0.32 9.28 1 12 C-1.97 11.505 -1.97 11.505 -5 11 C-4.46884894 6.48521602 -2.63379708 3.65333143 0 0 Z " fill="#769922" transform="translate(390,355)"/>
<path d="M0 0 C0.99 0 1.98 0 3 0 C3 0.66 3 1.32 3 2 C4.32 2 5.64 2 7 2 C7 2.99 7 3.98 7 5 C6.01 5 5.02 5 4 5 C4 4.34 4 3.68 4 3 C3.21625 3.495 2.4325 3.99 1.625 4.5 C-1 6 -1 6 -3 6 C-2.42655063 3.13275314 -2.1385485 2.1385485 0 0 Z " fill="#87B811" transform="translate(133,136)"/>
<path d="M0 0 C1.65 0 3.3 0 5 0 C5 0.66 5 1.32 5 2 C7.97 2.33 10.94 2.66 14 3 C14 3.33 14 3.66 14 4 C9.05 4.33 4.1 4.66 -1 5 C-0.67 3.35 -0.34 1.7 0 0 Z " fill="#739722" transform="translate(115,340)"/>
<path d="M0 0 C0 0.99 0 1.98 0 3 C-1.74468372 3.70088156 -3.49601161 4.38524009 -5.25 5.0625 C-6.22453125 5.44535156 -7.1990625 5.82820313 -8.203125 6.22265625 C-11.04007395 7.01113787 -12.29409552 7.02437812 -15 6 C-12.87717331 4.99539469 -10.75166979 3.99644398 -8.625 3 C-7.44164062 2.443125 -6.25828125 1.88625 -5.0390625 1.3125 C-2 0 -2 0 0 0 Z " fill="#657C22" transform="translate(321,422)"/>
<path d="M0 0 C0.66 0 1.32 0 2 0 C2.33 1.65 2.66 3.3 3 5 C2.05125 5.2475 1.1025 5.495 0.125 5.75 C-3.08693191 6.6857077 -3.08693191 6.6857077 -4.375 9.125 C-4.58125 9.74375 -4.7875 10.3625 -5 11 C-5 7.63596525 -4.38119947 6.59907083 -2.625 3.8125 C-2.18414062 3.09707031 -1.74328125 2.38164062 -1.2890625 1.64453125 C-0.65097656 0.83048828 -0.65097656 0.83048828 0 0 Z " fill="#708F23" transform="translate(320,216)"/>
<path d="M0 0 C0 3.16785869 -0.55555175 4.28103859 -2 7 C-2.33 7.99 -2.66 8.98 -3 10 C-4.98 10.33 -6.96 10.66 -9 11 C-8.06558465 9.72689688 -7.12732889 8.456612 -6.1875 7.1875 C-5.66542969 6.47980469 -5.14335938 5.77210938 -4.60546875 5.04296875 C-3.16871123 3.21468607 -1.68184237 1.60103312 0 0 Z " fill="#7A9829" transform="translate(106,147)"/>
<path d="M0 0 C0.66 0.33 1.32 0.66 2 1 C1.01 2.485 1.01 2.485 0 4 C-0.66 4 -1.32 4 -2 4 C-2 4.66 -2 5.32 -2 6 C-3.98 6 -5.96 6 -8 6 C-7 3 -7 3 -3.5625 1.25 C-2.386875 0.8375 -1.21125 0.425 0 0 Z " fill="#6F8B25" transform="translate(179,97)"/>
<path d="M0 0 C0.99 0 1.98 0 3 0 C2.01 3.63 1.02 7.26 0 11 C-0.99 11 -1.98 11 -3 11 C-3 10.01 -3 9.02 -3 8 C-2.34 8 -1.68 8 -1 8 C-1.33 7.01 -1.66 6.02 -2 5 C-1.0625 2.3125 -1.0625 2.3125 0 0 Z " fill="#79A315" transform="translate(84,213)"/>
<path d="M0 0 C1 3 1 3 0.3125 5.125 C-1 7 -1 7 -3.125 7.75 C-4.053125 7.87375 -4.053125 7.87375 -5 8 C-5 6.68 -5 5.36 -5 4 C-2.5 1.75 -2.5 1.75 0 0 Z " fill="#7FA123" transform="translate(345,406)"/>
<path d="M0 0 C1.98 0.99 1.98 0.99 4 2 C4.33 2.99 4.66 3.98 5 5 C5.66 4.34 6.32 3.68 7 3 C7.6875 4.75 7.6875 4.75 8 7 C7.01 8.32 6.02 9.64 5 11 C3.35 7.37 1.7 3.74 0 0 Z " fill="#7EA523" transform="translate(231,171)"/>
<path d="M0 0 C0.8353125 0.37125 0.8353125 0.37125 1.6875 0.75 C-0.3125 2.75 -0.3125 2.75 -2.875 3.75 C-5.46091441 4.49870114 -5.46091441 4.49870114 -6.3125 6.75 C-8.29138961 7.47693904 -10.29204558 8.14816251 -12.3125 8.75 C-3.44361413 -0.37228261 -3.44361413 -0.37228261 0 0 Z " fill="#73902C" transform="translate(138.3125,120.25)"/>
<path d="M0 0 C0.99 0 1.98 0 3 0 C3.6875 1.8125 3.6875 1.8125 4 4 C2.5625 5.75 2.5625 5.75 1 7 C0.01 6.01 -0.98 5.02 -2 4 C-1.34 2.68 -0.68 1.36 0 0 Z " fill="#82AA20" transform="translate(299,270)"/>
<path d="M0 0 C0.99 0.33 1.98 0.66 3 1 C3 2.32 3 3.64 3 5 C3.99 5 4.98 5 6 5 C6 6.65 6 8.3 6 10 C2.46413986 6.82679218 0.41421969 4.83256305 0 0 Z M6 4 C8 5 8 5 8 5 Z " fill="#7DA123" transform="translate(272,134)"/>
<path d="M0 0 C0.66 0 1.32 0 2 0 C2 4.29 2 8.58 2 13 C1.67 13 1.34 13 1 13 C-1.42857143 4.57142857 -1.42857143 4.57142857 0 0 Z " fill="#85AA2A" transform="translate(233,114)"/>
<path d="M0 0 C1.31223496 3.93670488 0.24296256 6.12488144 -1 10 C-1.66 10 -2.32 10 -3 10 C-3 10.66 -3 11.32 -3 12 C-3.66 12 -4.32 12 -5 12 C-3.68938409 7.76570244 -2.05643741 3.92592596 0 0 Z " fill="#728D1E" transform="translate(396,343)"/>
<path d="M0 0 C0.66 0 1.32 0 2 0 C2 0.66 2 1.32 2 2 C1.34 2 0.68 2 0 2 C0 1.34 0 0.68 0 0 Z M-1 2 C-0.67 2 -0.34 2 0 2 C0 3.65 0 5.3 0 7 C0.66 7 1.32 7 2 7 C2 7.66 2 8.32 2 9 C-3.75 7.25 -3.75 7.25 -6 5 C-5.360625 4.87625 -4.72125 4.7525 -4.0625 4.625 C-3.0415625 4.315625 -3.0415625 4.315625 -2 4 C-1.67 3.34 -1.34 2.68 -1 2 Z " fill="#7CA422" transform="translate(46,330)"/>
<path d="M0 0 C0.66 0 1.32 0 2 0 C2 0.66 2 1.32 2 2 C2.66 2 3.32 2 4 2 C4 2.66 4 3.32 4 4 C4.66 4 5.32 4 6 4 C6 6.31 6 8.62 6 11 C3.13546142 7.58983503 1.65296434 4.09305456 0 0 Z " fill="#81A920" transform="translate(391,190)"/>
<path d="M0 0 C0.8125 1.6875 0.8125 1.6875 1 4 C-1.1875 6.8125 -1.1875 6.8125 -4 9 C-6.3125 8.8125 -6.3125 8.8125 -8 8 C-6.8553125 7.4121875 -6.8553125 7.4121875 -5.6875 6.8125 C-2.75283929 4.83331022 -1.59873102 3.1133183 0 0 Z " fill="#738E29" transform="translate(311,127)"/>
<path d="M0 0 C4.50802601 1.25805377 7.4912812 2.90407165 11 6 C7.14521782 6.35858439 5.42240542 6.2754818 2.125 4.125 C1.42375 3.42375 0.7225 2.7225 0 2 C0 1.34 0 0.68 0 0 Z " fill="#7A9E23" transform="translate(336,49)"/>
<path d="M0 0 C1.32 0.33 2.64 0.66 4 1 C4 1.66 4 2.32 4 3 C4.66 3 5.32 3 6 3 C6 4.98 6 6.96 6 9 C3.03134491 6.45543849 1.6380249 3.51005335 0 0 Z " fill="#7FA51D" transform="translate(83,366)"/>
<path d="M0 0 C-0.99 0.33 -1.98 0.66 -3 1 C-3.33 1.66 -3.66 2.32 -4 3 C-6.97 3 -9.94 3 -13 3 C-8.8341563 0.22277086 -4.9360889 -1.89849573 0 0 Z " fill="#536720" transform="translate(196,310)"/>
<path d="M0 0 C1 4 1 4 0 7 C0.66 7.66 1.32 8.32 2 9 C0.68 10.32 -0.64 11.64 -2 13 C-2.66 12.67 -3.32 12.34 -4 12 C-2.68 8.04 -1.36 4.08 0 0 Z " fill="#596E18" transform="translate(67,211)"/>
<path d="M0 0 C3.36720387 1.39332574 4.9859524 2.9789286 7 6 C3.62537285 5.45276317 1.91765 4.9451 -1 3 C-0.67 2.01 -0.34 1.02 0 0 Z " fill="#759620" transform="translate(356,63)"/>
<path d="M0 0 C3 1.8125 3 1.8125 6 4 C6 4.99 6 5.98 6 7 C5.34 7 4.68 7 4 7 C4 6.34 4 5.68 4 5 C3.01 5.33 2.02 5.66 1 6 C0.4465236 3.92446352 0 2.15634036 0 0 Z " fill="#7EA91C" transform="translate(347,55)"/>
<path d="M0 0 C0.33 0.99 0.66 1.98 1 3 C-1.77280706 6.08089673 -4.06326356 7.68775452 -8 9 C-7.04270084 7.87411986 -6.08412105 6.7493285 -5.125 5.625 C-4.59132813 4.99851562 -4.05765625 4.37203125 -3.5078125 3.7265625 C-2.38567993 2.44163349 -1.20628025 1.20628025 0 0 Z " fill="#728F26" transform="translate(359,394)"/>
<path d="M0 0 C1.4783226 2.95664519 1.06032783 5.74229737 1 9 C0.01 8.67 -0.98 8.34 -2 8 C-2.99 8.66 -3.98 9.32 -5 10 C-3.66511872 6.40608886 -2.03977277 3.24509304 0 0 Z " fill="#799C26" transform="translate(219,326)"/>
<path d="M0 0 C4.455 0.99 4.455 0.99 9 2 C8.34 2.66 7.68 3.32 7 4 C3.375 3.625 3.375 3.625 0 3 C0 2.01 0 1.02 0 0 Z " fill="#82A922" transform="translate(320,43)"/>
<path d="M0 0 C0.33 0 0.66 0 1 0 C1 1.65 1 3.3 1 5 C0.360625 5.268125 -0.27875 5.53625 -0.9375 5.8125 C-3.33131686 6.88667752 -3.33131686 6.88667752 -4 10 C-4.66 9.67 -5.32 9.34 -6 9 C-5.02501855 7.4972763 -4.04490611 5.99788037 -3.0625 4.5 C-2.51722656 3.6646875 -1.97195313 2.829375 -1.41015625 1.96875 C-0.94480469 1.3190625 -0.47945313 0.669375 0 0 Z " fill="#688927" transform="translate(384,364)"/>
<path d="M0 0 C-0.33 0.99 -0.66 1.98 -1 3 C-2.65 3.33 -4.3 3.66 -6 4 C-6 2.68 -6 1.36 -6 0 C-3.50907189 -1.24546405 -2.58919267 -0.7767578 0 0 Z " fill="#83AC20" transform="translate(178,331)"/>
<path d="M0 0 C0.33 0 0.66 0 1 0 C0.67 3.96 0.34 7.92 0 12 C-2 10 -2 10 -2.25 7.125 C-2.01152253 4.14403168 -1.54507335 2.5107442 0 0 Z " fill="#6F8D21" transform="translate(429,291)"/>
<path d="M0 0 C0.75 1.75 0.75 1.75 1 4 C-0.875 6.0625 -0.875 6.0625 -3 8 C-3.33 8.99 -3.66 9.98 -4 11 C-4.66 11 -5.32 11 -6 11 C-4.74194623 6.49197399 -3.09592835 3.5087188 0 0 Z " fill="#667E26" transform="translate(277,103)"/>
<path d="M0 0 C1.32 0 2.64 0 4 0 C4 0.99 4 1.98 4 3 C5.32 2.67 6.64 2.34 8 2 C7.67 3.32 7.34 4.64 7 6 C3.63279613 4.60667426 2.0140476 3.0210714 0 0 Z " fill="#759524" transform="translate(109,401)"/>
<path d="M0 0 C0 2.83967231 -0.40267181 5.23735711 -1 8 C-1.99 7.67 -2.98 7.34 -4 7 C-3.43628586 3.73045798 -2.50037734 2.17424117 0 0 Z " fill="#86AC29" transform="translate(364,390)"/>
<path d="M0 0 C2.475 0.495 2.475 0.495 5 1 C4.67 2.32 4.34 3.64 4 5 C4.99 5.33 5.98 5.66 7 6 C6.34 6 5.68 6 5 6 C4.67 6.66 4.34 7.32 4 8 C0 2.25 0 2.25 0 0 Z " fill="#7DA321" transform="translate(383,177)"/>
<path d="M0 0 C0.99 0 1.98 0 3 0 C2.46930939 3.82097239 1.50298434 6.06171403 -1 9 C-0.67 6.03 -0.34 3.06 0 0 Z " fill="#82AB1E" transform="translate(373,154)"/>
<path d="M0 0 C0.66 0.33 1.32 0.66 2 1 C0.02 3.31 -1.96 5.62 -4 8 C-4.99 7.67 -5.98 7.34 -7 7 C-4.69 4.69 -2.38 2.38 0 0 Z " fill="#738F28" transform="translate(123,130)"/>
<path d="M0 0 C0 2.83967231 -0.40267181 5.23735711 -1 8 C-1.99 8 -2.98 8 -4 8 C-3.50168276 4.31245243 -2.89932357 2.39509338 0 0 Z " fill="#7C9E26" transform="translate(238,67)"/>
<path d="M0 0 C3.465 1.485 3.465 1.485 7 3 C6.01 3.66 5.02 4.32 4 5 C0.8125 4.125 0.8125 4.125 -2 3 C-1.34 2.01 -0.68 1.02 0 0 Z " fill="#7CA31F" transform="translate(159,418)"/>
<path d="M0 0 C1.98 0 3.96 0 6 0 C6 0.99 6 1.98 6 3 C4.35 3 2.7 3 1 3 C0.67 2.01 0.34 1.02 0 0 Z " fill="#83AD22" transform="translate(129,418)"/>
<path d="M0 0 C1.32 0 2.64 0 4 0 C3.34 1.32 2.68 2.64 2 4 C1.01 4 0.02 4 -1 4 C-0.67 2.68 -0.34 1.36 0 0 Z " fill="#7FA917" transform="translate(381,394)"/>
<path d="M0 0 C4.455 0.99 4.455 0.99 9 2 C9 2.33 9 2.66 9 3 C4.545 3.495 4.545 3.495 0 4 C0 2.68 0 1.36 0 0 Z " fill="#80A624" transform="translate(53,322)"/>
<path d="M0 0 C1.32 0.33 2.64 0.66 4 1 C4.33 2.98 4.66 4.96 5 7 C3.29115995 5.37660195 1.62553283 3.70680947 0 2 C0 1.34 0 0.68 0 0 Z " fill="#7CA31D" transform="translate(287,259)"/>
<path d="M0 0 C-1.0975223 2.99324263 -1.67682892 3.84610901 -4.625 5.25 C-5.40875 5.4975 -6.1925 5.745 -7 6 C-6.75 4.125 -6.75 4.125 -6 2 C-3.85331506 0.61504198 -2.56128588 0 0 0 Z " fill="#86B125" transform="translate(131,127)"/>
<path d="M0 0 C1.65 1.65 3.3 3.3 5 5 C4.67 5.66 4.34 6.32 4 7 C2.35 6.01 0.7 5.02 -1 4 C-0.67 2.68 -0.34 1.36 0 0 Z " fill="#7EA51D" transform="translate(366,74)"/>
</svg>
